<?xml version="1.0" standalone="no"?>
<!DOCTYPE svg PUBLIC "-//W3C//DTD SVG 20010904//EN"
 "http://www.w3.org/TR/2001/REC-SVG-20010904/DTD/svg10.dtd">
<svg version="1.0" xmlns="http://www.w3.org/2000/svg"
 width="300.000000pt" height="300.000000pt" viewBox="0 0 300.000000 300.000000"
 preserveAspectRatio="xMidYMid meet">
<metadata>
Created by potrace 1.11, written by Peter Selinger 2001-2013
</metadata>
<g transform="translate(0.000000,300.000000) scale(0.100000,-0.100000)"
fill="#000000" stroke="none">
<path d="M1270 2985 c-331 -57 -603 -197 -835 -429 -209 -210 -349 -472 -412
-776 -25 -120 -25 -440 0 -560 101 -482 403 -873 832 -1076 111 -53 215 -88
342 -116 134 -29 454 -32 583 -5 212 44 429 137 592 253 103 74 258 225 331
324 148 201 240 420 283 675 20 119 12 413 -15 532 -132 592 -572 1032 -1164
1164 -116 26 -421 34 -537 14z"/>
</g>
</svg>
